<?xml version="1.0" encoding="iso-8859-1"?>
<!-- Uploaded to: SVG Repo, www.svgrepo.com, Generator: SVG Repo Mixer Tools -->
<svg fill="#697C89" height="800px" width="800px" version="1.1" id="Layer_1" xmlns="http://www.w3.org/2000/svg" xmlns:xlink="http://www.w3.org/1999/xlink" 
	 viewBox="0 0 330 400" xml:space="preserve">
<g id="XMLID_17_">
	<path id="XMLID_18_" d="M324.516,3.413c-3.471-2.85-8.039-3.993-12.441-3.117C303.746,1.952,295.73,3.965,288,6.327v323.665h27
		c8.284,0,15-6.716,15-15V61.663V15.008C330,10.517,327.987,6.262,324.516,3.413z"/>
	<path id="XMLID_19_" d="M0,244.992v70c0,8.284,6.716,15,15,15h27V222.106c-9.147,3.268-19.078,6.018-29.924,8.173
		C5.057,231.675,0,237.835,0,244.992z"/>
	<path id="XMLID_20_" d="M183.32,78.944c-11.195,13.882-21.057,28.394-30.724,42.632c-2.868,4.225-5.724,8.428-8.597,12.593v195.823
		h42V75.679c-0.831,1.003-1.66,2.007-2.477,3.017C183.454,78.777,183.388,78.86,183.32,78.944z"/>
	<path id="XMLID_21_" d="M246.627,23.846C235.77,29.929,225.581,36.979,216,45.045v284.947h42V17.961
		c-3.095,1.483-6.145,3.028-9.137,4.654C248.081,22.966,247.33,23.372,246.627,23.846z"/>
	<path id="XMLID_22_" d="M72,208.107v121.885h42V173.187C102.089,186.376,88.58,198.295,72,208.107z"/>
</g>
</svg>